<?xml version="1.0" standalone="no"?>
<!DOCTYPE svg PUBLIC "-//W3C//DTD SVG 20010904//EN"
 "http://www.w3.org/TR/2001/REC-SVG-20010904/DTD/svg10.dtd">
<svg version="1.0" xmlns="http://www.w3.org/2000/svg"
 width="260.000000pt" height="260.000000pt" viewBox="0 0 260.000000 260.000000"
 preserveAspectRatio="xMidYMid meet">
<metadata>
Created by potrace 1.11, written by Peter Selinger 2001-2013
</metadata>
<g transform="translate(0.000000,260.000000) scale(0.100000,-0.100000)"
fill="#000000" stroke="none">
<path d="M0 1300 l0 -1300 1300 0 1300 0 0 1300 0 1300 -1300 0 -1300 0 0
-1300z m920 530 c77 -13 146 -34 218 -67 l52 -24 0 -175 0 -174 -170 0 -170 0
0 74 c0 98 -17 121 -89 121 -88 0 -86 6 -86 -300 0 -305 -1 -300 84 -300 77 0
91 19 91 122 l0 83 170 0 170 0 0 -180 0 -180 -51 -25 c-83 -42 -192 -66 -329
-72 -316 -13 -490 98 -556 357 -23 89 -23 301 0 390 51 195 160 304 346 344
78 17 230 20 320 6z m1430 -225 l0 -215 -155 0 -155 0 0 100 0 100 -80 0 -80
0 0 -105 0 -105 60 0 60 0 0 -75 0 -75 -60 0 -60 0 0 -125 0 -125 80 0 80 0 0
110 0 110 155 0 155 0 0 -225 0 -225 -475 0 -475 0 0 115 0 115 45 0 45 0 0
305 0 305 -45 0 -45 0 0 115 0 115 475 0 475 0 0 -215z"/>
</g>
</svg>
